<svg xmlns="http://www.w3.org/2000/svg" width="100" height="70" viewBox="0 -15 100 100" fill="none"><g clip-path="url(#a)"><path fill="url(#b)" d="M95.512 35.13c.473-1.272.881-2.568 1.315-3.855a2.368 2.368 0 0 0-.221-2.428.724.724 0 0 0-.29-.638 7.432 7.432 0 0 0-4.622-2.188 9.455 9.455 0 0 0-2.175-.168c-.873.14-.868.167-.914-.675a1.186 1.186 0 0 0-.032-.258 23.694 23.694 0 0 0-1.327-4.052 4.868 4.868 0 0 0-4.526-2.912 15.504 15.504 0 0 0-4.335.529 7.905 7.905 0 0 0-2.801 1.655c-.3.217-.535.51-.683.848a11.431 11.431 0 0 0-.775 3.183c-.029.334-.114.333-.408.284a12.628 12.628 0 0 0-1.752-.444 6.61 6.61 0 0 0-2.363.36 3.688 3.688 0 0 0-2.058 1.153 7.556 7.556 0 0 0-1.257 2.684 5.322 5.322 0 0 0 .468 4.333c.092.15.16.311.202.481a18.3 18.3 0 0 0 1.382 3.936.523.523 0 0 1-.128.694 6.896 6.896 0 0 0-2.103 5.004 5.803 5.803 0 0 0 1.172 3.458 6.24 6.24 0 0 0 3.164 1.946 6.549 6.549 0 0 0 3.517-.06 2.92 2.92 0 0 0 2.227-1.645.338.338 0 0 1 .292-.19.922.922 0 0 1 .333-.999c.301-.259.603-.052.883.094.332.15.601.411.763.738l.916.174c.683.173 1.38.287 2.082.342.174-.307.107-.72.424-.964.926.032 1.302.397 1.368 1.304.02.275.078.547.118.82.14-.027.223.074.324.141a4.43 4.43 0 0 0 3.186.766c1.17-.174 2.348-.311 3.506-.575a4.543 4.543 0 0 0 1.72-.722 10.729 10.729 0 0 0 2.922-3.51c.445-.67.732-1.433.84-2.23a7.695 7.695 0 0 0-1.124-4.756.37.37 0 0 1 .038-.538 3.66 3.66 0 0 0 .732-1.12Zm-6.528 2.519c-.36.06-.652.264-1.007.32-.687.11-1.102.73-1.726.98-.88.354-1.604.997-2.475 1.383a2.62 2.62 0 0 0-.714.659c-.58.613-1.382.963-1.916 1.63-.082.021-.2.016-.24.07-.433.584-1.011.473-1.595.35a.937.937 0 0 1-.716-.61 3.895 3.895 0 0 1-.427-1.091.677.677 0 0 0-.352-.55 4.13 4.13 0 0 0-.587-1.14 9.726 9.726 0 0 0-1.89-3.017 12.1 12.1 0 0 1-.845-1.12c-.394-.469-.82-.91-1.238-1.358a2.287 2.287 0 0 1-.508-.715.396.396 0 0 0-.318-.29c-.238-.055-.458-.182-.454-.49a.674.674 0 0 1 .456-.64 1.523 1.523 0 0 1 1.94.545c.35.445.725.871 1.122 1.276.899.949 1.578 2.073 2.44 3.045.443.63.84 1.29 1.19 1.976.084-.907.09-1.819.017-2.726.053-.583.074-1.17.06-1.755-.11-.887.161-1.782-.003-2.68a2.259 2.259 0 0 1 .033-.809 7.421 7.421 0 0 0-.137-2.13c-.094-1.146-.233-2.285-.348-3.427-.06-.59.479-.922 1.063-.63a1.461 1.461 0 0 1 .948 1.304c.058 1.008.235 2.015.35 3.018.093.908.112 1.821.057 2.732a.254.254 0 0 0 .119.293c.268-.43.559-.845.871-1.243.349-.626.776-1.2 1.164-1.793.286-.332.596-.643.927-.93.285-.299.534-.63.74-.987a.655.655 0 0 1 1.008-.296c.188.119.397.209.578.346.559.425.584.777.155 1.332-.4.518-.981.837-1.403 1.315-.38.43-.752.873-1.104 1.326a15.652 15.652 0 0 1-1.193 1.6.867.867 0 0 0-.21.626 9.093 9.093 0 0 0-1.514 1.409.425.425 0 0 0-.123.327c-.007 1.017-.01 2.034-.033 3.05-.006.308.226.602.043.914.279.017.279.017 0 0-.074.307-.23.61-.008.973.387-.482.994-.673 1.356-1.165.987-.552 1.942-1.157 2.94-1.694.776-.436 1.575-.83 2.394-1.18a1.692 1.692 0 0 1 1.465.928.46.46 0 0 1-.352.739Z"/><path fill="#000" fill-opacity=".8" d="M29.283 9.223a9.198 9.198 0 0 1-2.284 2.558c-.4.366-.828.037-1.197-.176-.351-.203-.304-.558-.218-.883a3.18 3.18 0 0 1 .79-1.199c.715-.834 1.497-1.61 2.246-2.415a9.117 9.117 0 0 1 1.446-1.666c.877-.582 1.382-1.549 2.21-2.185a8.166 8.166 0 0 1 2.045-1.559c.165-.06.176-.279.293-.413A4.912 4.912 0 0 1 36.2.148a1.95 1.95 0 0 1 2.048.413c.464.36.953.688 1.464.98.99.575 1.997 1.12 3.005 1.662.778.417 1.463.971 2.202 1.445a19.44 19.44 0 0 1 2.193 1.461c1.011.863 2.068 1.66 3.122 2.464.376.288.658.706 1.06.987.213.15.146.4.096.58-.133.486-1.316.757-1.703.429a8.938 8.938 0 0 0-2.293-1.782 11.2 11.2 0 0 0-.013 2.601c.007.357.026.719.011 1.078-.015 1.295.052 2.59.2 3.877.063.754-.082 1.5-.025 2.262.081 1.09-.131 2.185-.033 3.283.077.87-.368 3.685-.282 4.56.016.17-.039.345-.031.517.03.684-.278 1-.965.977a.927.927 0 0 1-.969-1.01 5.952 5.952 0 0 1 .05-1.65c.232-1.721.31-3.46.232-5.195-.052-1.261.123-2.512-.005-3.782-.1-.996-.113-2.021-.158-3.033a20.226 20.226 0 0 1-.002-3.535 16.768 16.768 0 0 1 .014-2.376c.071-.253-.05-.385-.27-.485a6.238 6.238 0 0 1-.992-.738 18.823 18.823 0 0 0-2.432-1.514c-.552-.281-1.06-.646-1.583-.982-.538-.345-1.056-.723-1.607-1.044-.452-.264-1.018-.3-1.415-.693-.083-.083-.164-.092-.275.064a7.682 7.682 0 0 1-1.773 1.665 16.01 16.01 0 0 0-2.29 2.186 17.49 17.49 0 0 1-1.508 1.433c-.305.265-.495.382-.204.887a3.55 3.55 0 0 1 .378 1.711c-.002 1.25.077 2.5.039 3.747a20.377 20.377 0 0 0-.02 3.027c.106.872-.209 1.676-.168 2.53.018.367.269.648.181 1.077a2.1 2.1 0 0 0-.03 1.32 15.207 15.207 0 0 1-.008 3.798.57.57 0 0 0 .068.295.797.797 0 0 1 .008.817 2.475 2.475 0 0 0 .027 1.491c.152.55.147 1.133-.017 1.68-.163.471-.72.413-1.14.44a.656.656 0 0 1-.778-.609c.023-.67-.388-1.345.034-2.02.143-.228-.1-.492-.113-.756-.043-.953-.084-3.912-.145-4.858-.064-.995.003-1.988-.065-2.982a21.179 21.179 0 0 1 .152-4.41 6.697 6.697 0 0 0-.043-.918c.01-.8-.039-1.6.006-2.401a5.5 5.5 0 0 1 .012-1.486.437.437 0 0 0-.164-.41Z"/><path fill="#000" fill-opacity=".8" d="M37.975 9.725c.054 1 .105 2.001.163 3.002.034.598-.018 1.195.032 1.796.041.488-.324.743-.758.855a1.64 1.64 0 0 1-.606.088c-1.241-.237-2.444.294-3.68.144a1.167 1.167 0 0 1-1.14-1.083 17.01 17.01 0 0 1-.003-3.093c.166-1.023.047-2.032.178-3.04.058-.447.353-.64.643-.598a10.36 10.36 0 0 0 1.757-.096c.702-.015 1.388.095 2.078.147.967.073 1.36.677 1.336 1.878Zm-2.994-.428c-.262 0-.526.02-.785-.006-.252-.024-.306.12-.305.306.006.774.045 1.548.026 2.32-.015.581-.102 1.16-.155 1.74-.032.354.108.6.474.424a2.198 2.198 0 0 1 1.465-.08c.356.072.59.054.557-.456a3.292 3.292 0 0 1-.05-.924 2.255 2.255 0 0 0-.111-1.478 1.128 1.128 0 0 1-.054-.752c.214-.971.093-1.093-.905-1.094h-.157Zm1.814 9.78c-.092.882-.075 1.771.05 2.649.056.357-.126 2.633-.108 2.954.052.93.101 1.862.158 2.792a.447.447 0 0 1-.275.41 1.013 1.013 0 0 1-1.086-.06c-.258-.147-.351-.33-.357-.728-.015-.92-.031-1.843-.032-2.764-.002-.95.053-3.9.081-4.85a5.804 5.804 0 0 1-.04-1.133 1.158 1.158 0 0 1 1.232-.845c1.232.112 2.47.146 3.706.101 1.114.042 1.587.462 1.63 1.549.058 1.48.246 4.95.355 6.425.124.765.12 1.544-.014 2.307-.103.395-.209.659-.652.65a1.006 1.006 0 0 1-1.057-.604 1.845 1.845 0 0 1-.094-.93c.086-1.674.06-3.354-.08-5.026-.071-.83-.221-1.653-.248-2.486-.01-.298-.079-.336-.385-.355a47.99 47.99 0 0 0-2.731-.105c-.038-.044-.077-.055-.114-.002l.061.051Zm5.139-4.417a2.123 2.123 0 0 0-1.288.272.802.802 0 0 1-.982-.02c-.283-.263-.65-.46-.602-1.013a4.91 4.91 0 0 0-.2-1.375 15.25 15.25 0 0 1-.151-1.811c-.062-.675-.089-1.352-.203-2.022a1.027 1.027 0 0 1 .81-1.065c.46-.14.941-.186 1.418-.135.572.05 1.145.062 1.718.038a1.46 1.46 0 0 1 1.514 1.877 4.417 4.417 0 0 0 .17 2.085c.121.588.151 1.191.088 1.789a1.038 1.038 0 0 0-.008.357.463.463 0 0 1-.356.639 8.231 8.231 0 0 1-1.928.384ZM40.8 12.206c-.026 1.06-.004 1.076.78.877.086-.014.173-.017.26-.01.682-.012.709-.07.606-.775-.117-.798-.214-1.6-.277-2.404-.063-.807-.188-.941-1.035-.91-.118.005-.244.087-.351.065-.615-.13-.413.242-.365.552.146.939.277 1.88.382 2.605Zm-6.075 19.433c1.874-.084 3.748-.227 5.623-.235a169.25 169.25 0 0 0 4.806-.082 1.72 1.72 0 0 1 1.248 1.255c.004.344-.187.669-.514.561a3.481 3.481 0 0 0-1.435-.025c-1.364.108-2.729.02-4.094.109-.952.062-1.929.05-2.894.053-.763.004-1.52.161-2.286.102a1.534 1.534 0 0 1-1.023-.462c-.246-.254-.526-.55-.371-.913a.778.778 0 0 1 .94-.363Zm.618 4.957.311-.044a2.68 2.68 0 0 0 1.147.182 1.397 1.397 0 0 0 .633 1.476c0 .26.004.519 0 .778a.989.989 0 0 1-.962.974 3.55 3.55 0 0 0-1.458.61l-.195.061a2.225 2.225 0 0 0-1.991 1.602l-.584.805c-.436.01-.364.416-.482.652a4.986 4.986 0 0 0-.332 3.645c.109.402.305.717.812.57.087-.026.172-.026.224.07.095.178-.162.17-.172.34a.65.65 0 0 1 .873.267c.174.305.484.487.612.83.106.289.365.31.475.005.185-.514.5-.501.905-.32.072.032.133-.01.176-.073l.208.008c.232.125.452.33.735.106l.207.036c.063.638.696.682 1.053 1.014-.028.295.02.593.142.863.117.231.321.253.436.026.215-.425.585-.784.594-1.303.148-.002.292-.008.305-.207.227-.003.447-.08.625-.22a.217.217 0 0 0 .21-.094c.55-.085 1.064-.214 1.104-.919.002-.039.067-.074.102-.112a.995.995 0 0 0-.167-1.084c.183-.362.29-.757.313-1.162.503-.192.551-.343.282-.886.124-.251.018-.513.036-.77.022-.49-.09-.979-.324-1.412a.985.985 0 0 0-.246-.54l.065-.163c.235.069.466-.179.696-.022a.957.957 0 0 0 .714.18.683.683 0 0 1 .638.408c.092.28-.354-.075-.4.198-.005.026-.05.046-.075.069a27.143 27.143 0 0 1-.111-.103.393.393 0 0 0-.39.344c-.013.087.012.175-.118.175a.194.194 0 0 1-.195-.097.196.196 0 0 1-.025-.073c-.022-.104.047-.253-.165-.306-.058.418.22.744.269 1.119.132.605.279 1.197 1.054 1.276a.215.215 0 0 1 .152.126c.095.434.517.542.783.805-.081.459.374.721.416 1.135l-.01.224c-.432.222-.336.702-.511 1.05h-.001c-.385.143.027.429-.11.616a3.092 3.092 0 0 0-.95 1.171c-.24.391.128.773.018 1.163-.247.305.239.534.086.83-.351.23-.331.612-.396.96l-.33.937c-.419.987-.858 1.966-1.243 2.966-.11.286-.459.473-.37.823a1.29 1.29 0 0 1-.202.892 3.37 3.37 0 0 0-.535 1.86c.021.151-.108.14-.172.207-.447.35-.834.77-1.145 1.245-.07.14-.219.235-.223.41a.477.477 0 0 0-.252.5c.029.441.42.834.169 1.302l-.029.716a.81.81 0 0 0-.483.512c-.27.78-.265.781-1.09.596a1.034 1.034 0 0 0-1.094.182.13.13 0 0 1-.046.025c-.55.088-.788.322-.455.881a.212.212 0 0 1-.19.336c-.075-.84-.733-1.416-1.008-2.176-.14-.322-.366-.6-.652-.803-.09-.063-.26-.204-.17-.346.174-.269-.043-.394-.154-.565.371-.211.5-.036.545.323.013.108.072.295.206.257.16-.069.303-.168.424-.292a.13.13 0 0 0-.021-.221c-.315-.13-.39-.445-.573-.677a.868.868 0 0 1 .093-1.306.387.387 0 0 0 .057-.586c-.502-.691-1.175-1.304-1.066-2.288a.35.35 0 0 0-.25-.364l-.048-.312a3.377 3.377 0 0 0-.639-2.041.949.949 0 0 1-.166-.434c-.042-.202.01-.447-.086-.61a9.276 9.276 0 0 1-.714-2.019 3.83 3.83 0 0 1-.295-1.52l-.006-.406c-.03-.532-.44-1.026-.139-1.6.055-.104-.134-.168-.253-.205a3.193 3.193 0 0 1-1.003-.731.532.532 0 0 1-.024-.832.447.447 0 0 0 .16-.603 5.705 5.705 0 0 1-.21-2.248 8.52 8.52 0 0 1 .511-2.32c.437-.714.632-1.55.554-2.384a.224.224 0 0 1 .106-.222c.461-.415.895-.86 1.297-1.331.336-.297.252-.776.572-1.011.873-.643 1.707-1.391 2.93-1.248.214.025.491.135.671-.128Zm-2.098 16.48c.03.06.055.123.074.187.055.368.949.291.497.932.031.034.07.062.111.082.252.109.487.254.698.43.222.098.471.115.705.047-.232-.58.428-.22.471-.465.023-.148-.347-.095-.161-.287.114-.117.276-.345.486-.173.23.188.291.066.365-.128.048-.13.11-.256.18-.375.065-.105.172-.206.083-.328-.081-.11-.223-.066-.344-.066-.434 0-.827.322-1.293.14-.107-.043-.28.11-.25.266.032.167.194.1.305.074.131-.032.265-.133.358.057.086.175-.061.241-.126.366-.174.336-.37.152-.559.09-.564-.182-.903-.78-1.6-.85Zm2.453 3.27c-.122-.468-.712-.666-.525-1.224.028-.085-.128-.107-.208-.087-.315.078-.33.416-.506.618-.141.16.104.208.176.307.09.125.344.192.182.415-.075.104-.102.181.004.264a.203.203 0 0 0 .321-.036c.121-.229.346-.2.556-.257Zm3.367-3.719a3.74 3.74 0 0 1-.456.183c-.16.041-.33.06-.29.279.035.187.091.387.323.424.21.033.266-.148.314-.287a.874.874 0 0 0 .108-.599ZM11.934 38.326a2.891 2.891 0 0 1-1.946-1.18 24.749 24.749 0 0 0-2.487-2.768c-.125-.107-.16-.184-.335-.023a23.193 23.193 0 0 0-2.73 2.529 2.702 2.702 0 0 1-2.464.628c-.693-.289-.789-.846-.167-1.292a22.621 22.621 0 0 0 2.515-2.065c.388-.373.81-.71 1.203-1.076a.418.418 0 0 0 .085-.646c-.278-.366-.651-.628-.945-.973-.678-.794-1.38-1.57-2.04-2.379a11.677 11.677 0 0 1-.965-1.405c-.125-.209-.24-.497.008-.721a.756.756 0 0 1 .795-.256 2.193 2.193 0 0 1 1.346 1.06c.58.947 1.255 1.832 2.015 2.643.309.35.625.695.937 1.044.141.157.243.198.401-.015.597-.803 1.329-1.49 1.978-2.249a4.88 4.88 0 0 1 .845-.89.927.927 0 0 1 1.228.137c.308.292.54.602.234 1.092-.42.67-1.093 1.11-1.495 1.8a5.64 5.64 0 0 1-1.354 1.615c-.125.099-.134.154-.004.31.571.683 1.303 1.21 1.858 1.901a10.798 10.798 0 0 0 1.846 1.953c.23.174.514.426.362.833-.133.356-.412.383-.724.393Zm85.01 29a5.943 5.943 0 0 1-3.597-.862 3.697 3.697 0 0 1-.89-5.173c.271-.405.591-.776.953-1.102a4.854 4.854 0 0 1 2.6-.968 3.484 3.484 0 0 1 3.295 2 5.121 5.121 0 0 1 .614 3.602 2.537 2.537 0 0 1-.841 1.636c-.662.556-1.313 1.093-2.134.867Zm1.155-3.83a4.368 4.368 0 0 0-.234-1.715 1.174 1.174 0 0 0-1.935-.634c-.093.047-.19.086-.29.115-.881.355-2.228 1.44-2 2.851a1.785 1.785 0 0 0 .73 1.373 3.163 3.163 0 0 0 2.203.235c1.01-.256 1.476-1.003 1.526-2.225Zm-21.617-17.33a.921.921 0 0 1 .332-1c.302-.258.604-.052.884.094.332.15.601.411.762.738.113.549.128 1.114.044 1.668-.08.614.02 1.221-.069 1.836a24.542 24.542 0 0 0 .022 3.673c.006.825.123 1.687.11 2.493-.03 1.874.216 3.74.078 5.61-.019.26-.084.516-.128.774a.5.5 0 0 1-.295.35 1.267 1.267 0 0 1-1.203-.065.988.988 0 0 1-.448-.911c-.016-.957-.071-1.914-.124-2.87-.009-.692.029-1.384.112-2.072.044-.55-.117-1.065-.063-1.614a17.166 17.166 0 0 0-.07-2.046 12.192 12.192 0 0 1 .017-2.15c.106-.673-.067-1.331.06-2.002.06-.834.052-1.673-.02-2.506Zm5.4-.616c.926.032 1.302.397 1.368 1.305.02.274.078.546.118.82a9.568 9.568 0 0 0 .067 2.214c.063.19-.068.44-.075.663-.03.63-.02 1.26.026 1.889.074.848-.082 1.69.027 2.527.142 1.096-.058 2.191.059 3.294.1.958.065 1.925-.103 2.873a.76.76 0 0 1-.806.71c-.612.017-1.096-.244-1.111-.636-.026-.668-.098-1.339-.062-2.004a20.29 20.29 0 0 0-.02-3.23 6.717 6.717 0 0 1 .082-1.245c.09-1.138-.132-2.27-.012-3.42.067-.638-.084-1.348-.026-1.972a14.4 14.4 0 0 1 .098-2.68c.011-.04-.035-.096-.055-.144.175-.307.108-.72.425-.964ZM.04 63.367c.04-.6.173-1.19.396-1.75.24-.724.546-1.426.912-2.096.2-.531.548-.993 1.005-1.328a19.406 19.406 0 0 0 1.594-1.247 6.5 6.5 0 0 0 .976-.755c.235-.27 1.296-.144 1.574.11a.981.981 0 0 1-.236 1.489 23.028 23.028 0 0 0-2.264 1.701 4.494 4.494 0 0 0-1.31 2.366c-.098.346-.323.63-.43.983a2.103 2.103 0 0 0 .215 2.046.309.309 0 0 1 .06.085A4.567 4.567 0 0 0 4.643 67.3c.28.207.5.484.642.802a.445.445 0 0 1-.383.694 1.944 1.944 0 0 1-1.608-.662 11.59 11.59 0 0 0-1.538-1.303c-.455-.332-.552-.82-.831-1.22-.28-.401-.469-.867-.737-1.286a1.212 1.212 0 0 1-.148-.958Z"/><path fill="#000" fill-opacity=".6" d="m41.015 42.207-.065.163c-.245-.094-.3-.425-.583-.471a2.829 2.829 0 0 1-.356-.22 5.054 5.054 0 0 0-3.694-1.153c-.434.025-.868.031-1.302.046a3.55 3.55 0 0 1 1.458-.61.988.988 0 0 0 .96-.974c.005-.26.002-.519.002-.778a.792.792 0 0 0 .255.043c.304-.052.615-.143.605.349 0 .029.072.085.108.083.096-.005.145-.082.173-.169.148-.454-.37-.437-.486-.694-.063-.14-.418.054-.264-.24.095-.18.299-.406.497-.301.43.228.849.064 1.286.035-.018.091-.03.141-.036.192-.026.24-.185.602.324.305a.274.274 0 0 1 .415.19c.065.39.14.647.554.248a.225.225 0 0 1 .323.062 1.394 1.394 0 0 0 1.74.207c.056-.05.062-.157.091-.238a4.468 4.468 0 0 1 1.869 1.926 1.617 1.617 0 0 0-1.023.305c-.107.086-.154.291-.035.263.54-.129.336.22.331.45-.004.202.1.19.27.183.225-.009.417.049.225.375-.222.377.08.637.345.803.154.096.491.16.596-.1.15-.372-.04-.634-.42-.752-.01-.003-.012-.03-.043-.117.427.116.253-.186.288-.362.261.262.414.614.426.985.184 1.485.383 2.973.457 4.467a3.37 3.37 0 0 1-.49 1.897c-.116-.066-.205-.153-.133-.295.193-.379.167-.825.385-1.2a.565.565 0 0 0-.277-.834 1.558 1.558 0 0 0-1.18 0c-.324.208-.52.013-.769.03-.265-.262-.687-.37-.783-.804a.215.215 0 0 0-.152-.126c-.775-.08-.922-.671-1.054-1.277.146-.051.63.388.373-.261-.032-.081.12-.15.229-.158.139-.01.228-.066.235-.215.268.046.21.224.165.4-.105.416.274.363.458.405.282.065.194-.208.218-.362.028-.172-.082-.283-.163-.42-.117-.197-.369-.414-.049-.661.087-.067.023-.139-.01-.224a.36.36 0 0 1 .245-.524 1.03 1.03 0 0 0 .141-.069c.2-.107.15-.293.145-.464a.197.197 0 0 0-.152-.193c-.252-.06-.136.185-.21.275-.392.47-.708.539-1.39.252.294-.327.764-.404 1.013-.771.096-.142.286-.238.173-.442-.098-.178-.263-.067-.371-.019-.16.071-.393.154-.2.412a.146.146 0 0 1-.015.226.181.181 0 0 1-.278 0c-.115-.147-.409-.138-.387-.38.02-.205.262-.2.396-.3.079-.06.302-.074.154-.24-.121-.135.052-.344-.128-.42-.195-.081-.196.15-.294.23a.84.84 0 0 0-.123.168c-.255.204-.546.36-.858.458-.288.018-.536-.192-.523-.387.034-.486-.298-.344-.466-.285a.97.97 0 0 1-1.167-.342c.19-.211.47-.12.712-.174-.085-.306-.05-.656-.43-.73a1.56 1.56 0 0 0-1.086.25c-.152.088-.19.274.089.367.24.08.534.043.71.284-.387.354-.114.664.11.917a2.3 2.3 0 0 0 1.76.792c.02 0 .04.047.062.072-.023.178-.277.044-.3.221l.374.42Zm3.355 1.992c.134-.039.291.194.409-.033.27-.518.054-.95-.588-1.092.1.367.16.745.18 1.126-.077.012-.166.01-.16.125a.047.047 0 0 0 .033.032c.116.008.112-.082.126-.158Zm-1.18-5.163c-.04.26-.373.37-.144.522.217.2.48.34.766.413.18.019.441.126.51-.086.082-.254-.214-.327-.387-.393-.193-.073-.425-.03-.284-.376.029-.07-.303-.373-.396-.3-.244.194-.478-.065-.724.075.19.144.333.335.66.145Zm1.873 5.226c.01.155.545.382-.08.452-.154.018-.116.27-.012.384.078.086.213.21.345.034.123-.165.242-.334.37-.496.254-.324.082-.425-.232-.437-.131-.004-.276-.045-.39.063Zm.741-1.058a.437.437 0 0 0-.419-.27c-.242-.005-.33.141-.267.331.07.21.181.386-.06.558-.05.035-.008.136.068.163.06.02.172.046.187.022.156-.242.464-.378.491-.804Zm.047 1.693c-.277.157-.31.523-.637.592-.157.032-.328.147-.252.31.072.154.306.125.412.031.246-.193.545-.308.857-.33-.303-.16-.244-.398-.38-.603Zm-6.321-6.603c-.017-.061-.019-.174-.163-.167-.126.006-.158.114-.195.206-.04.098.003.164.107.178.135.017.235-.023.25-.217Zm3.64 2.082c.17.046.31.096.436-.081-.182-.14-.295-.038-.436.081Z"/><path fill="#000" fill-opacity=".8" d="M23.05 50.925c-.705.23-1.628.148-2.505.479-.672.173-1.354.299-2.043.378-.715.16-1.443.227-2.16.406-1.026.257-2.036.564-3.052.85-.435.123-.808.434-1.266.554a1.45 1.45 0 0 1-1.604-.414c-.426-.478-.351-.937.238-1.197a17.52 17.52 0 0 1 3.018-1.06c.99-.234 1.968-.528 2.967-.71.974-.178 1.93-.47 2.903-.585a8.06 8.06 0 0 0 1.442-.2 5.76 5.76 0 0 1 2.19-.27 1.803 1.803 0 0 1 1.336.58c.357.44.273.74-.237.984a2.15 2.15 0 0 1-1.227.205Z"/><path fill="#000" fill-opacity=".6" d="M32.71 63.955c.11.17.327.296.154.566-.091.141.08.283.17.345.285.204.51.482.651.804.276.76.934 1.336 1.008 2.175a.218.218 0 0 0-.097.208c-.108.05-.211.127-.343.082.008-.138.01-.275.003-.413a1.29 1.29 0 0 0-.83-1.228 18.593 18.593 0 0 1-.86-2.214 8.385 8.385 0 0 0-.822-1.727c-.49-.924-.765-1.934-1.176-2.89-.454-1.054-.9-2.111-1.338-3.172a71.688 71.688 0 0 1-1.96-5.287c-.392-1.207-.616-2.456-.989-3.667a4.436 4.436 0 0 1-.02-1.558c-.002-1 .116-1.995.353-2.965a8.52 8.52 0 0 1 2.818-4.29 9.376 9.376 0 0 1 4.817-2.205c.366-.012.733.014 1.094.077-.18.263-.458.153-.673.128-1.221-.143-2.055.605-2.929 1.248-.32.235-.236.715-.571 1.011-.403.472-.836.916-1.297 1.33a.224.224 0 0 0-.106.224 3.875 3.875 0 0 1-.554 2.383 8.519 8.519 0 0 0-.511 2.32c-.387-.034-.49-.304-.545-.632-.026-.158-.097-.309-.303-.293-.202.016-.181.173-.192.312-.006.082-.024.163-.039.252-.148.014-.146-.141-.196-.149-.428-.064-.432-.226-.24-.588.134-.339.223-.694.267-1.055.017-.075.086-.186-.026-.224a.337.337 0 0 0-.241.058 2.17 2.17 0 0 0-.66 1.477 10.69 10.69 0 0 1-.096 1.993c0 .208-.085.46.004.616.148.4.258.813.33 1.233.107.305.171.381.444.378.122 0 .262-.041.387.076-.73.298-.74.313-.55.767.34.805.472 1.673.781 2.496.33.785.618 1.588.861 2.404.11.426.785.662.42 1.253-.018.03.014.104.04.147.43.806.787 1.65 1.067 2.518.19.471.709.815.578 1.414-.003.014.015.03.02.047a1.751 1.751 0 0 0 1.196 1.334c-.615.24-.583.632-.328 1.002.409.594.632 1.283 1.028 1.88Z"/><path fill="#000" fill-opacity=".8" d="M83.045 67.611c-.738.09-1.474.212-2.215.259-.532.034-1.061.096-1.596.113-.669.02-1.336.11-2.01.075a1.496 1.496 0 0 1-1.278-.68.762.762 0 0 1 .748-1.112 13.35 13.35 0 0 0 2.166-.092 22.652 22.652 0 0 1 2.494-.242c.94-.09 1.875-.237 2.8-.438 1.279-.207 2.53-.516 3.794-.79a1.156 1.156 0 0 1 1.299 1.194.563.563 0 0 1-.404.553c-.838.256-1.697.44-2.567.548-.476.038-.87.328-1.343.379-.63.067-1.255.186-1.881.283l-.007-.05Z"/><path fill="#000" fill-opacity=".7" d="M43.842 46.306c.248-.017.445.178.768-.031a1.556 1.556 0 0 1 1.18.001.566.566 0 0 1 .277.835c-.218.374-.191.82-.384 1.199-.072.141.016.229.133.295a1.461 1.461 0 0 1-.214.74.197.197 0 0 0-.175.165 3.354 3.354 0 0 1-.705 1.598c-.034.037-.088.095-.078.124.216.617-.21.303-.36.22-.224-.127-.326-.162-.265.146.028.138-.172.184-.095.342l.747.138-.44.84c-.326.02-.357.176-.19.42a.453.453 0 0 1-.132.314c-.225.168-.49-.056-.802.08.376.17.59.331.326.736a.494.494 0 0 1-.619.176c-.487-.115-.544.175-.633.492.145.083.183-.02.246-.068A.41.41 0 0 1 42.95 55c.075.05.145.095.115.203-.058.207-.213.239-.402.249-.23.012-.295.176-.319.337.183.197.503-.211.568.21a.4.4 0 0 1-.13.285c-.233.038-.2.204-.176.367l-.059.155c-.133.024-.223.067-.093.208-.029.283-.243.482-.334.737-.621.398-.634 1.217-1.16 1.683a.355.355 0 0 0 .09.099c.081.042.185.091.109.186-.417.512-.563 1.168-.933 1.71-.26.347-.421.757-.468 1.188l-.094.176c-.232.078-.249.258-.217.461a.19.19 0 0 1-.117.178c-.402.051-.339.391-.407.65l.004-.004c-.338.082-.492.465-.846.52.251-.468-.14-.86-.17-1.301a.476.476 0 0 1 .253-.501c.006.192.002.385.023.575.014.129.186.192.21.105.076-.246.224-.464.425-.626-.229-.076-.157-.434-.436-.464a5.222 5.222 0 0 1 1.145-1.245c.064-.066.194-.055.172-.208a3.37 3.37 0 0 1 .535-1.859c.174-.263.246-.58.203-.892-.09-.35.26-.537.369-.822.385-1 .825-1.98 1.243-2.967.391.017.661-.062.424-.539a.407.407 0 0 1-.001-.072c.077-.203.344-.051.466-.203-.184-.196-.38-.114-.559-.122.064-.348.045-.731.396-.961.128.176.356.097.519.205.088.06.157.29.326.107a.255.255 0 0 0 .072-.187c-.036-.168-.192-.094-.3-.124-.416-.114-.493-.318-.216-.606.078-.08.167-.147.097-.255-.068-.106-.179-.059-.281-.028a2.81 2.81 0 0 1-.304.058c.111-.39-.257-.772-.017-1.163.079.065.238.035.22.215-.03.316.021.325.308.234.213-.067.137-.213.157-.327.06-.342.1-.635.598-.454.2.072.532.167.388-.405-.136-.541-.548-.205-.722-.434.138-.187-.274-.473.11-.616-.003.282.134.444.413.367.291-.08.611-.191.576-.589-.01-.12.019-.3-.133-.37-.186-.084-.213.122-.312.199-.177.136-.361.262-.542.393.175-.348.079-.827.512-1.05.353.15.61-.122.94-.167-.326-.45-.632-.022-.93-.056-.042-.414-.497-.677-.416-1.136Zm-1.194 6.854c.175.046.365.164.564-.094-.233-.029-.404-.092-.564.094Zm2.98-5.729.043-.023c-.012-.01-.024-.027-.037-.028-.014-.001-.028.013-.042.02l.036.031Z"/><path fill="#000" fill-opacity=".8" d="M53.933 45.497a2.23 2.23 0 0 1-1.957-.456.604.604 0 0 1-.102-.795c.14-.262.44-.502.713-.42.635.115 1.29.046 1.886-.199a7.812 7.812 0 0 0 2.258-.69 16.5 16.5 0 0 0 2.025-1.393 7.724 7.724 0 0 0 1.545-1.751c.203-.311.138-.686.389-.981.32-.378.694-.44.978-.042.3.386.49.846.553 1.331a1.74 1.74 0 0 1-.401 1.133 11.035 11.035 0 0 1-3.477 3.09c-.827.458-1.758.448-2.578.81a5.36 5.36 0 0 1-1.832.363Zm-19.68 22.638c.132.045.235-.032.344-.082l.728.006c.466.258.927-.049 1.392-.014.884-.045 1.771-.01 2.65.104.221.036.43.13.602.274a.894.894 0 0 1 .398.858c-.067.354-.419.362-.663.408-.667.13-1.35.155-2.025.075a4.934 4.934 0 0 0-1.193.025c-1.086.138-2.176.16-3.268.2-.927.034-1.85-.024-2.77.004a3.54 3.54 0 0 1-2.214-.506 1.551 1.551 0 0 1-.542-.625c-.106-.225-.228-.423-.016-.67a.569.569 0 0 1 .695-.218c1.076.545 2.217.183 3.324.271.757.038 1.517.007 2.27-.09l.288-.02Zm19.432.06c-1.196.176-2.407.128-3.607.233-.859.074-1.701.278-2.573.28a6.069 6.069 0 0 0-1.613.188 1.649 1.649 0 0 1-1.6-.91.63.63 0 0 1 .584-.875 17.766 17.766 0 0 0 2.72-.324c.746-.099 1.511-.082 2.247-.224 1.254-.241 2.55.094 3.793-.37a1.71 1.71 0 0 1 1.947 1.282.427.427 0 0 1-.353.547c-.51.092-1.03.12-1.545.173Zm-30.789.899a16.528 16.528 0 0 0-3.771.035c-1.157.033-2.31.21-3.463.33-1.242.161-2.503.11-3.727-.152a2.346 2.346 0 0 1-.973-.588.55.55 0 0 1-.148-.752c.184-.263.416-.55.818-.36 1.007.327 2.079.4 3.12.213a42.258 42.258 0 0 0 3.668-.303c1.144-.14 2.287-.019 3.43-.063a1.55 1.55 0 0 1 1.555.632.646.646 0 0 1 .076.677c-.134.295-.383.257-.585.33ZM26.4 34.226c-1.058 0-2.124-.078-3.173.02-1.438.03-2.873.136-4.3.315a2.036 2.036 0 0 1-1.707-.468.817.817 0 0 1-.296-.73c.005-.286.261-.277.442-.364.293-.1.598-.156.907-.167 1.274-.206 2.565-.124 3.842-.276.56-.012 1.121.005 1.68.053.857-.007 1.714-.057 2.572-.075a31.34 31.34 0 0 1 1.782.006c.424.015.707.43 1.14.448-.09.308.13.61.005.926a.5.5 0 0 1-.536.324c-.786.002-1.572.001-2.358.001v-.013Zm25.005-3.591c1.035.064 2.066.183 3.088.358.225.028.444.096.645.201 1 .57 2.113.892 3.119 1.446.39.228.75.506 1.068.827.382.406.794.782 1.232 1.126.265.23.443.544.505.89a.57.57 0 0 1-.734.708 1.377 1.377 0 0 1-.83-.514c-.758-1.378-2.145-1.82-3.444-2.429a8.962 8.962 0 0 0-4.093-.827 2.256 2.256 0 0 1-1.53-.554.705.705 0 0 1-.277-.87c.136-.33.418-.373.728-.363.174.006.349.001.523.001Zm10.95 35.613c1.74-.01 3.48-.07 5.213-.21.66-.093 1.316-.224 1.962-.392a1.513 1.513 0 0 1 1.643 1.386.486.486 0 0 1-.482.515c-1.967.272-3.95.418-5.935.439a8.92 8.92 0 0 0-1.742-.023 1.358 1.358 0 0 1-1.267-.686.696.696 0 0 1 .02-.781.522.522 0 0 1 .588-.248Z"/><path fill="#000" fill-opacity=".7" d="M43.02 38.282c-.03.08-.035.189-.092.238a1.393 1.393 0 0 1-1.739-.207.224.224 0 0 0-.322-.063c-.415.4-.49.143-.555-.247a.273.273 0 0 0-.288-.23.274.274 0 0 0-.127.04c-.51.297-.35-.066-.324-.305.005-.05.018-.1.036-.192-.437.029-.857.193-1.286-.035-.198-.105-.402.12-.497.302-.154.293.201.099.264.239.116.257.634.24.486.694-.028.087-.077.164-.173.169-.036.002-.108-.055-.108-.083.01-.492-.3-.4-.604-.35a.798.798 0 0 1-.256-.043 1.398 1.398 0 0 1-.634-1.476v.003c.312-.091.75.378.95-.214a.466.466 0 0 1 .539-.058 8.597 8.597 0 0 0 2.252.354c.468.188.913.43 1.324.723-.056.485.3.319.538.34a.058.058 0 0 1 .074.024c-.023.345.211.314.436.298l.106.079Zm-7.694 29.777-.729-.006a.216.216 0 0 1 .097-.208.212.212 0 0 0 .19-.335c-.333-.56-.095-.794.456-.882a.13.13 0 0 0 .045-.024 1.034 1.034 0 0 1 1.095-.182c.825.185.82.183 1.09-.596a.81.81 0 0 1 .483-.512l.022.238-.048.291c-.264.163-.227.425-.224.677l-.01.009c-.167-.06-.25 0-.248.178l-.086.09c-.236-.056-.341.11-.454.265a.774.774 0 0 1-.968.311c-.89-.264-.9-.23-.71.634a.203.203 0 0 1-.001.052Zm10.096-26.803c-.035.176.14.478-.288.361.032.087.034.115.044.118.38.118.57.38.42.751-.105.26-.443.197-.596.1-.266-.165-.568-.425-.346-.802.192-.326.001-.384-.225-.375-.17.006-.273.02-.27-.182.005-.231.21-.58-.33-.451-.119.028-.073-.177.035-.263a1.618 1.618 0 0 1 1.023-.305l.4.708c-.101.037-.185.096-.154.215.04.151.177.116.288.126v-.001Z"/><path fill="#000" fill-opacity=".6" d="M35.325 68.059a.213.213 0 0 0 .002-.052c-.19-.864-.181-.898.71-.634a.775.775 0 0 0 .968-.311c.113-.155.218-.321.454-.264l-.742 1.247c-.465-.034-.925.272-1.392.014Zm4.434-5.443c.046-.43.208-.84.467-1.188.37-.541.516-1.198.933-1.71.077-.095-.027-.145-.109-.186a.36.36 0 0 1-.09-.099c.526-.466.539-1.285 1.16-1.682a24.203 24.203 0 0 1-2.361 4.865Zm.782-25.798a8.59 8.59 0 0 1-2.252-.354.466.466 0 0 0-.54.059c-.312.088-.701-.164-.949.214v-.003a2.678 2.678 0 0 1-1.146-.182 7.537 7.537 0 0 1 4.887.266Zm2.372 19.179c-.065-.42-.385-.012-.568-.209.024-.16.089-.325.319-.337.189-.01.344-.042.402-.25.03-.107-.04-.151-.115-.202a.41.41 0 0 0-.523.07c-.063.046-.101.15-.246.067.09-.317.146-.608.633-.492a.494.494 0 0 0 .62-.176c.262-.405.049-.566-.328-.736.313-.137.578.087.803-.08-.28.803-.614 1.586-.997 2.345Zm1.758-3.919-.747-.138c-.077-.158.123-.204.096-.342-.062-.308.04-.273.265-.146.149.084.575.397.36-.22-.01-.03.044-.088.077-.124a3.35 3.35 0 0 0 .706-1.598.196.196 0 0 1 .174-.165 10.668 10.668 0 0 1-.93 2.733ZM34.253 68.135l-.289.02c-.068-.59-.473-1.07-.538-1.66a1.288 1.288 0 0 1 .83 1.227c.006.138.005.275-.003.413Zm3.821-2.584-.022-.238.029-.716c.355-.055.509-.438.846-.52l-.853 1.474Z"/><path fill="#000" fill-opacity=".6" d="M38.924 64.082c.067-.26.005-.6.406-.65a1.538 1.538 0 0 1-.406.65Zm3.479-26.202c-.237-.02-.593.147-.538-.339a.96.96 0 0 1 .538.34Zm1.637 15.458c-.166-.244-.136-.4.19-.42a.646.646 0 0 1-.19.42ZM37.802 66.52c-.003-.252-.04-.514.224-.677-.023.24-.1.47-.224.677Zm7.621-25.263c-.11-.01-.248.025-.287-.126-.032-.12.052-.178.153-.215a.424.424 0 0 1 .134.34Zm-2.509-3.054c-.224.016-.459.047-.436-.299a.732.732 0 0 1 .436.3Zm-3.467 25.05c-.03-.203-.014-.383.218-.46a.647.647 0 0 1-.218.46Zm3.159-6.603c-.025-.163-.057-.329.176-.367a.518.518 0 0 1-.176.367Zm-.151.363c-.13-.14-.04-.184.093-.208l-.093.208Zm-4.911 9.694c-.002-.178.08-.238.25-.178l-.25.178Z"/><path fill="#000" fill-opacity=".8" d="M81.147 42.62c-.083.023-.202.017-.241.07-.434.585-1.01.474-1.595.352a.939.939 0 0 1-.716-.612 3.895 3.895 0 0 1-.427-1.09.677.677 0 0 0-.352-.55 4.133 4.133 0 0 0-.587-1.14 9.73 9.73 0 0 0-1.89-3.018c-.303-.356-.585-.73-.845-1.12-.394-.468-.82-.91-1.238-1.357a2.289 2.289 0 0 1-.508-.715.397.397 0 0 0-.318-.29c-.239-.056-.458-.182-.454-.491a.673.673 0 0 1 .456-.639 1.522 1.522 0 0 1 1.94.545c.35.445.725.871 1.122 1.276.899.948 1.578 2.072 2.44 3.045.443.63.84 1.29 1.19 1.976.084-.907.09-1.819.017-2.726.053-.584.073-1.17.06-1.755-.11-.888.161-1.783-.003-2.68a2.266 2.266 0 0 1 .033-.809 7.428 7.428 0 0 0-.137-2.131c-.094-1.145-.233-2.284-.348-3.426-.06-.59.478-.922 1.063-.631a1.462 1.462 0 0 1 .948 1.304c.058 1.009.236 2.015.35 3.02.093.907.112 1.82.057 2.73a.255.255 0 0 0 .119.293c.268-.43.559-.844.871-1.243.349-.625.776-1.2 1.164-1.792.286-.332.596-.643.927-.93.285-.299.534-.63.74-.987a.653.653 0 0 1 1.008-.296c.188.118.397.209.578.346.559.425.584.777.155 1.332-.4.518-.98.837-1.403 1.315-.38.43-.752.872-1.104 1.326a15.677 15.677 0 0 1-1.194 1.6.868.868 0 0 0-.21.626 9.1 9.1 0 0 0-1.513 1.41.426.426 0 0 0-.123.326c-.006 1.017-.01 2.034-.032 3.05-.007.308.225.602.042.915-.074.306-.23.61-.008.972.388-.482.995-.673 1.357-1.165.987-.552 1.942-1.157 2.94-1.694a24.72 24.72 0 0 1 2.393-1.18 1.693 1.693 0 0 1 1.466.929.461.461 0 0 1-.353.738c-.359.06-.651.264-1.006.32-.688.111-1.102.73-1.726.98-.88.354-1.604.997-2.475 1.383-.277.173-.52.397-.714.659-.58.614-1.383.963-1.916 1.63Z"/><path fill="#000" fill-opacity=".7" d="M32.71 63.955c-.397-.596-.62-1.285-1.029-1.878-.254-.37-.286-.762.33-1.003a1.751 1.751 0 0 1-1.197-1.334c-.005-.016-.024-.033-.02-.047.13-.599-.388-.942-.578-1.413-.28-.87-.637-1.712-1.066-2.519-.027-.042-.06-.117-.041-.147.365-.59-.311-.827-.42-1.253a23.452 23.452 0 0 0-.86-2.403c-.31-.823-.443-1.691-.782-2.497-.19-.453-.18-.469.55-.767-.125-.117-.266-.077-.388-.075-.272.002-.336-.074-.444-.378a6.924 6.924 0 0 0-.329-1.234c-.089-.155-.004-.408-.005-.616.095-.66.127-1.326.097-1.992.021-.56.257-1.089.66-1.478a.331.331 0 0 1 .24-.057c.113.037.043.148.027.223a4.232 4.232 0 0 1-.268 1.055c-.19.362-.187.524.241.589.05.007.048.162.196.148.014-.089.033-.17.039-.252.01-.138-.01-.296.191-.311.207-.016.278.134.304.292.054.328.158.599.544.633-.08.755-.01 1.52.21 2.247a.446.446 0 0 1-.16.603.532.532 0 0 0 .025.832c.283.307.623.555 1.002.731.119.037.308.101.253.206-.301.573.108 1.067.14 1.6-.227.077-.148-.43-.415-.229a.425.425 0 0 0-.075.488c.086.255.323.117.496.146a3.83 3.83 0 0 0 .294 1.52c.16.699.4 1.376.715 2.019.095.164.043.408.086.61a.946.946 0 0 0 .166.434c.428.594.652 1.31.638 2.042-.305-.008-.61.17-.936-.078.023.453.347.82.007 1.212-.077.089-.104.414.06.47.247.084.198-.197.262-.34a.624.624 0 0 1 .21-.218c.122-.09.244-.207.15-.343-.329-.472.071-.359.296-.392a.35.35 0 0 1 .25.365c-.11.984.564 1.596 1.065 2.287a.388.388 0 0 1-.056.587.867.867 0 0 0-.094 1.306c.184.232.258.547.573.676a.129.129 0 0 1 .063.17.13.13 0 0 1-.041.051 1.303 1.303 0 0 1-.424.292c-.135.038-.193-.148-.207-.256-.045-.36-.174-.535-.546-.324Zm-2.81-8.85c.157-.002.171-.104.171-.211 0-.118.016-.26-.157-.267-.139-.005-.237.08-.214.222.018.111.066.234.2.255Zm.342.762c-.158-.12-.247-.36-.504-.272a.146.146 0 0 0-.054.13c.134.231.353.154.558.142Zm-2.943-8.663a.744.744 0 0 0-.159-.056c-.069-.004-.148.002-.16.089-.002.022.068.08.095.075.079-.028.153-.064.224-.108Zm4.946-4.164a4.74 4.74 0 0 0 .207 3.323 4.662 4.662 0 0 0 2.704 2.563c.063.028.123.061.18.1-.043.062-.104.104-.176.072-.405-.18-.72-.193-.905.32-.11.305-.369.285-.476-.003-.127-.344-.437-.526-.61-.83a.65.65 0 0 0-.874-.268c.01-.17.267-.162.172-.34-.053-.096-.137-.096-.224-.07-.508.146-.704-.168-.813-.57a4.988 4.988 0 0 1 .332-3.645c.119-.237.047-.642.483-.652Zm6.768-3.253a.971.971 0 0 0 1.167.342c.168-.058.5-.2.467.286-.014.194.234.405.523.386a2.65 2.65 0 0 0 .858-.457.85.85 0 0 1 .123-.169c.098-.078.098-.31.294-.228.18.075.006.283.127.419.148.165-.075.18-.154.24-.133.1-.377.095-.395.3-.023.242.271.233.386.38a.18.18 0 0 0 .217.048.18.18 0 0 0 .062-.049.146.146 0 0 0 .014-.225c-.193-.258.04-.34.2-.412.108-.048.273-.16.372.019.112.204-.078.3-.174.441-.248.368-.718.445-1.013.771.682.288.998.219 1.39-.251.075-.09-.042-.336.21-.276a.197.197 0 0 1 .152.194c.006.17.056.357-.145.464a.92.92 0 0 1-.141.069.358.358 0 0 0-.245.524c.034.085.098.156.01.224-.32.246-.068.464.05.662.08.136.19.246.163.419-.025.154.063.426-.218.362-.185-.042-.564.011-.458-.405.044-.176.102-.355-.166-.4v-.001l-.101-.424c.026-.023.07-.042.074-.069.047-.273.492.083.4-.198a.682.682 0 0 0-.637-.408.957.957 0 0 1-.714-.18c-.23-.157-.461.09-.697.022l-.374-.42c.023-.177.277-.043.3-.221-.021-.026-.042-.072-.063-.072a2.301 2.301 0 0 1-1.76-.792c-.223-.253-.496-.563-.109-.917l.005.002Zm3.007 1.608a.289.289 0 0 0-.21-.25c-.16-.058-.166.126-.214.22-.064.124.002.192.132.2a.266.266 0 0 0 .292-.17Zm-8.775 11.681c.697.069 1.036.667 1.6.85.188.061.384.246.559-.09.065-.126.212-.191.126-.366-.094-.19-.227-.09-.358-.058-.111.027-.274.093-.306-.074-.03-.155.144-.308.25-.266.467.183.86-.14 1.294-.14.121 0 .262-.044.344.066.089.122-.019.223-.082.328-.072.12-.133.245-.181.376-.074.194-.135.315-.365.127-.21-.172-.372.056-.486.174-.187.191.183.139.161.287-.043.244-.703-.115-.472.464a1.025 1.025 0 0 1-.704-.047 2.836 2.836 0 0 0-.698-.43.353.353 0 0 1-.111-.082c.451-.64-.442-.564-.498-.931a1.084 1.084 0 0 0-.073-.188Z"/><path fill="#000" fill-opacity=".6" d="M39.088 48.736c.219-.138.432-.286.658-.41a2.891 2.891 0 0 0 1.143-1.187.993.993 0 0 1 .168 1.085c-.035.038-.1.073-.103.112-.04.705-.552.834-1.104.919a.342.342 0 0 0-.482-.287c-.239.066-.247-.083-.28-.232Z"/><path fill="#000" fill-opacity=".7" d="m36.485 49.176 2.11-.17c-.005.221.144.242.311.238 0 .12-.013.245.11.325-.014.199-.158.205-.306.207-.455-.045-.767.314-1.171.413-.358-.33-.991-.375-1.054-1.013Z"/><path fill="#000" fill-opacity=".6" d="M43.626 49.332c.174.228.586-.108.722.434.143.571-.19.476-.388.404-.498-.181-.538.113-.598.455-.02.114.056.259-.157.326-.287.09-.338.083-.307-.234.017-.18-.142-.15-.221-.215.215-.462.54-.864.95-1.17Z"/><path fill="#000" fill-opacity=".7" d="M35.699 56.346c-.211.058-.435.028-.557.257a.204.204 0 0 1-.321.035c-.105-.082-.079-.16-.004-.263.162-.223-.091-.29-.182-.415-.072-.1-.317-.147-.176-.308.176-.201.191-.54.506-.617.08-.02.236.002.208.087-.186.558.404.756.526 1.224Z"/><path fill="#000" fill-opacity=".6" d="M37.54 50.19c.404-.1.716-.46 1.171-.414-.01.519-.38.877-.594 1.303-.115.227-.319.205-.436-.026a1.71 1.71 0 0 1-.142-.864Zm3.558-5.345-.4-1.591a.526.526 0 0 1 .498-.344c.234.433.346.921.325 1.413-.193-.021-.384-.043-.21.249.16.266-.023.274-.213.273ZM32.125 58.8c-.225.034-.625-.08-.297.392.095.136-.027.254-.15.343a.624.624 0 0 0-.209.22c-.064.142-.015.423-.263.338-.163-.056-.136-.38-.06-.47.34-.392.017-.758-.006-1.21.325.246.63.069.936.076l.05.312Zm2.695-18.167-1.992 1.602a2.225 2.225 0 0 1 1.991-1.602Z"/><path fill="#000" fill-opacity=".7" d="M42.69 43.464c-.007.15-.097.206-.235.216-.108.007-.262.077-.23.157.257.65-.227.21-.372.262-.049-.375-.327-.701-.269-1.119.211.053.143.202.165.306a.197.197 0 0 0 .22.17c.13 0 .105-.088.118-.175a.393.393 0 0 1 .39-.344c-.02.211-.211.492.212.526v.001Z"/><path fill="#000" fill-opacity=".6" d="M41.197 42.91a.527.527 0 0 0-.499.344c-.37-.389-.297-.885-.33-1.355.283.046.338.377.583.47.135.151.221.34.245.541Zm1.497 8.755c.102-.014.204-.033.304-.058.102-.031.212-.078.281.029.07.107-.02.174-.097.254-.277.288-.2.492.216.606.107.03.263-.044.3.124a.254.254 0 0 1-.072.187c-.17.183-.238-.048-.327-.107-.162-.108-.39-.029-.518-.205.152-.296-.333-.525-.087-.83Z"/><path fill="#000" fill-opacity=".7" d="M39.065 52.627a.872.872 0 0 1-.109.6c-.048.138-.104.32-.313.286-.232-.037-.288-.236-.323-.424-.041-.22.13-.238.289-.279.156-.05.308-.112.456-.183Z"/><path fill="#000" fill-opacity=".6" d="M38.388 62.386c.278.03.206.387.435.464-.2.16-.349.379-.425.625-.024.087-.196.024-.21-.105-.02-.19-.017-.383-.023-.575.004-.175.153-.27.223-.41Zm4.09-8.532c.238.477-.032.555-.423.539l.33-.937c.18.008.375-.074.558.122-.122.152-.389 0-.466.203l-.036.018.037.055Zm-1.276-7.876c-.005-.235-.132-.462-.053-.703l.335-.183c.27.543.221.694-.282.886Zm-11.024 5.887c-.173-.029-.41.109-.495-.146a.424.424 0 0 1 .074-.488c.267-.201.188.306.414.229l.007.405Z"/><path fill="#000" fill-opacity=".6" d="M41.485 45.092c-.112.06-.224.122-.335.183a.567.567 0 0 1-.05-.43c.188.001.371-.007.212-.273-.175-.292.017-.27.21-.25-.019.257.087.519-.037.77Z"/><path fill="#000" fill-opacity=".7" d="M39.088 48.736c.033.15.041.298.28.232a.341.341 0 0 1 .482.287.215.215 0 0 1-.091.076.209.209 0 0 1-.118.017c-.194-.396-.502.014-.735-.105v.001l-.03-.38.212-.128Z"/><path fill="#000" fill-opacity=".6" d="M44.258 47.442c.3.034.605-.394.93.056-.33.045-.585.316-.939.168l.01-.224Zm-5.353 1.801c.233.12.542-.291.736.105-.18.14-.398.217-.625.22-.123-.079-.11-.204-.11-.325Z"/><path fill="#000" fill-opacity=".7" d="M35.543 49.034c.25-.053.51-.015.735.106-.283.224-.503.018-.735-.106Z"/><path fill="#000" fill-opacity=".6" d="M42.689 43.464c-.423-.034-.232-.315-.212-.527l.111.103.101.424Z"/><path fill="#000" fill-opacity=".7" d="M39.009 39.784c-.177-.24-.47-.203-.71-.283-.28-.093-.242-.28-.09-.368a1.56 1.56 0 0 1 1.086-.25c.381.074.346.425.43.73-.242.054-.521-.037-.712.174l-.004-.003Zm4.181-.748c-.326.19-.469 0-.66-.145.246-.14.481.119.725-.075.092-.073.424.23.396.3-.141.346.09.303.284.377.173.066.469.139.387.392-.07.212-.33.105-.51.086a1.78 1.78 0 0 1-.766-.412c-.23-.152.104-.262.144-.523Zm1.873 5.226c.115-.108.26-.067.39-.062.315.01.487.113.232.436-.127.162-.246.331-.37.496-.131.177-.266.053-.344-.034-.104-.114-.143-.366.012-.383.625-.07.09-.298.08-.453Zm.742-1.058c-.028.426-.336.562-.491.804-.016.024-.127-.002-.187-.023-.077-.026-.12-.126-.07-.162.243-.172.131-.349.062-.558-.063-.19.025-.336.267-.33a.439.439 0 0 1 .419.27Zm-1.435.996c-.02-.38-.08-.758-.179-1.126.643.143.857.574.588 1.093-.117.227-.274-.006-.408.033Zm1.482.697c.135.206.077.444.379.603-.312.022-.61.137-.857.33-.106.094-.34.123-.412-.03-.076-.164.096-.279.252-.311.327-.07.36-.435.638-.592Zm-6.322-6.603c-.016.194-.115.234-.25.217-.104-.014-.147-.08-.107-.178.036-.092.069-.2.194-.206.145-.007.147.106.163.167Zm3.64 2.082c.141-.119.254-.22.436-.081-.125.177-.265.127-.436.081Zm1.2 3.824c-.014.075-.01.165-.126.158a.048.048 0 0 1-.033-.033c-.006-.115.083-.113.159-.125Z"/><path fill="#000" fill-opacity=".6" d="M43.737 48.715c.181-.13.366-.257.542-.393.1-.077.127-.283.313-.199.152.07.122.25.133.37.035.397-.285.509-.576.589-.28.077-.416-.085-.413-.367h.002Zm-1.089 4.445c.16-.186.331-.123.564-.094-.199.258-.39.14-.564.094Zm2.981-5.729-.037-.03c.014-.008.029-.022.042-.021.013.001.025.018.037.028l-.042.023Z"/><path fill="#000" fill-opacity=".8" d="m42.478 53.854-.038-.055.037-.018a.383.383 0 0 0 0 .073ZM36.8 36.736c.248-.377.637-.125.95-.213-.2.591-.637.122-.95.213Z"/><path fill="#000" fill-opacity=".6" d="m38.876 48.864.031.38c-.168.004-.317-.017-.311-.239a.376.376 0 0 1 .28-.14Zm-8.976 6.24c-.133-.022-.181-.144-.2-.255-.022-.141.076-.227.215-.222.172.007.157.149.157.266 0 .107-.014.21-.171.211Zm.341.763c-.204.011-.423.089-.558-.142a.145.145 0 0 1 .055-.13c.256-.089.345.152.503.272Zm-2.942-8.663c-.07.044-.145.08-.224.108-.026.005-.097-.053-.094-.075.012-.087.09-.093.16-.089a.756.756 0 0 1 .158.056Zm14.721-5.809a.267.267 0 0 1-.292.17c-.13-.008-.196-.076-.132-.2.048-.094.053-.278.213-.22a.288.288 0 0 1 .211.25Z"/></g><defs><linearGradient id="b" x1="90.623" x2="72.233" y1="49.948" y2="23.249" gradientUnits="userSpaceOnUse"><stop stop-color="#82D2E7"/><stop offset=".2" stop-color="#C2DFA6"/><stop offset=".44" stop-color="#F9EC6D"/><stop offset=".77" stop-color="#CADE73"/></linearGradient><clipPath id="a"><path fill="#fff" d="M0 0h100v70H0z"/></clipPath></defs></svg>